<?xml version="1.0" encoding="iso-8859-1"?>
<!-- Generator: Adobe Illustrator 19.0.0, SVG Export Plug-In . SVG Version: 6.00 Build 0)  -->
<svg version="1.1" id="Capa_1" xmlns="http://www.w3.org/2000/svg" xmlns:xlink="http://www.w3.org/1999/xlink" x="0px" y="0px" height="64"
	 viewBox="0 0 512 512" width="64" style="enable-background:new 0 0 64 64;" xml:space="preserve">
<g>
	<path style="fill:#CDA349;" d="M95,430l-6.896,25.6c-1.754,7.09,2.571,14.259,9.661,16.013c1.035,0.256,2.097,0.386,3.163,0.387
		c4.419,0.001,8.544-2.209,10.992-5.888l15.416-22.776L95,430z"/>
	<path style="fill:#CDA349;" d="M377.664,430.664l6.232,24.912c1.767,7.086-2.545,14.264-9.631,16.031
		c-1.044,0.26-2.117,0.392-3.193,0.393c-4.419,0.001-8.544-2.209-10.992-5.888L342.336,440L377.664,430.664z"/>
</g>
<path style="fill:#333333;" d="M436,224c-4.418,0-8-3.582-8-8V40c0-13.255-10.745-24-24-24s-24,10.745-24,24v8c0,4.418-3.582,8-8,8
	s-8-3.582-8-8v-8c0-22.091,17.909-40,40-40s40,17.909,40,40v176C444,220.418,440.418,224,436,224z"/>
<path style="fill:#CCCCCC;" d="M323.328,448H148.672C84.864,448,31.576,405.976,25.8,351.088L20,296h432l-5.8,55.088
	C440.424,405.976,387.136,448,323.328,448z"/>
<g>
	<path style="fill:#E6E6E6;" d="M452,272c5.207-6.916,8.016-15.343,8-24c0-17.673-14.327-32-32-32
		c-5.824,0.023-11.529,1.65-16.488,4.704c-3.988-32.861-33.86-56.266-66.721-52.278c-22.688,2.754-41.836,18.171-49.367,39.75
		c-1.136-0.08-2.272-0.176-3.424-0.176c-5.634,0.012-11.221,1.02-16.504,2.976c-2.671-17.367-18.915-29.281-36.283-26.61
		c-9.734,1.497-18.226,7.418-22.997,16.034c-19.594-26.641-57.076-32.353-83.716-12.759c-5.858,4.309-10.883,9.649-14.828,15.759
		c-24.592-9.792-52.466,2.206-62.258,26.798c-0.471,1.183-0.895,2.385-1.27,3.602c-16.483-5.802-34.549,2.856-40.351,19.339
		C12.565,256.627,11.958,260.303,12,264c0,2.776,0.752,9.408,0.752,9.408"/>
	<circle style="fill:#E6E6E6;" cx="108" cy="120" r="24"/>
	<circle style="fill:#E6E6E6;" cx="204" cy="136" r="16"/>
	<circle style="fill:#E6E6E6;" cx="168" cy="76" r="4"/>
</g>
<path style="fill:#808080;" d="M404,80c-2.338-19.882-20.351-34.105-40.233-31.767C347.102,50.192,333.96,63.334,332,80H404z"/>
<path style="fill:#999999;" d="M16,272h440c6.627,0,12,5.373,12,12l0,0c0,6.627-5.373,12-12,12H16c-6.627,0-12-5.373-12-12l0,0
	C4,277.373,9.373,272,16,272z"/>
<g>
	<path style="fill:#3FA9F5;" d="M332,144c-4.418,0-8-3.582-8-8v-24c0-4.418,3.582-8,8-8s8,3.582,8,8v24
		C340,140.418,336.418,144,332,144z"/>
	<path style="fill:#3FA9F5;" d="M356,128c-4.418,0-8-3.582-8-8v-16c0-4.418,3.582-8,8-8s8,3.582,8,8v16
		C364,124.418,360.418,128,356,128z"/>
	<path style="fill:#3FA9F5;" d="M380,144c-4.418,0-8-3.582-8-8v-24c0-4.418,3.582-8,8-8s8,3.582,8,8v24
		C388,140.418,384.418,144,380,144z"/>
	<path style="fill:#3FA9F5;" d="M404,128c-4.418,0-8-3.582-8-8v-16c0-4.418,3.582-8,8-8s8,3.582,8,8v16
		C412,124.418,408.418,128,404,128z"/>
</g>
<g>
</g>
<g>
</g>
<g>
</g>
<g>
</g>
<g>
</g>
<g>
</g>
<g>
</g>
<g>
</g>
<g>
</g>
<g>
</g>
<g>
</g>
<g>
</g>
<g>
</g>
<g>
</g>
<g>
</g>
</svg>
