<svg id="flat" height="64" viewBox="0 0 512 512" width="64" xmlns="http://www.w3.org/2000/svg"><path d="m312 24h32v56h-32z" fill="#8098ab"/><path d="m432 24h32v56h-32z" fill="#8098ab" transform="matrix(-1 0 0 -1 896 104)"/><path d="m344 40h88v24h-88z" fill="#62798c"/><path d="m48 24h32v56h-32z" fill="#8098ab"/><path d="m168 24h32v56h-32z" fill="#8098ab" transform="matrix(-1 0 0 -1 368 104)"/><path d="m80 40h88v24h-88z" fill="#62798c"/><path d="m408 72-28.12012 70.29a31.97194 31.97194 0 0 1 -12.75 15.25l-21.84988 13.66-33.28 20.8v48l13.27 86.24 18.73 121.76-32 24-40.65991-127.78-15.34009-48.22-15.83008 49.77-40.16992 126.23-32-24 18.76-121.92993 13.24-86.07007v-48l-33.28-20.8-21.84985-13.66a31.97194 31.97194 0 0 1 -12.75-15.25l-28.12015-70.29 8-32h32v40l24 40 17.45 4.36 70.55 17.64 70.55005-17.64 17.44995-4.36 24-40v-40h32z" fill="#ffceb6"/><path d="m325.27 326.24-53.93 17.98-15.34-48.22-15.83 49.77-53.41-19.7 13.24-86.07h112z" fill="#ffb401"/><path d="m168 448 32 24v16h-72v-16z" fill="#d1e4ff"/><path d="m312 472v16h72v-16l-40-24z" fill="#d1e4ff"/><path d="m345.28 171.2-33.28 20.8v48h-112v-48l-33.28-20.8 18.73-46.84 70.55 17.64 70.55-17.64z" fill="#548aff"/><path d="m232 104h48a0 0 0 0 1 0 0v24a24 24 0 0 1 -24 24 24 24 0 0 1 -24-24v-24a0 0 0 0 1 0 0z" fill="#ffceb6"/><path d="m232 104v-16l19.359-12.906a18.42223 18.42223 0 0 1 10.21879-3.094 18.42218 18.42218 0 0 1 18.42221 18.42219v13.57781z" fill="#c78640"/></svg>